<svg width="206" height="204" viewBox="0 0 206 204" fill="none" xmlns="http://www.w3.org/2000/svg">
<path d="M110.754 187.643C149.984 187.643 181.786 155.765 181.786 116.442C181.786 77.1194 149.984 45.2419 110.754 45.2419C71.5238 45.2419 39.7217 77.1194 39.7217 116.442C39.7217 155.765 71.5238 187.643 110.754 187.643Z" fill="#EFF0F2"/>
<path d="M205.463 142.523H153.685C150.151 122.048 150.151 101.116 153.685 80.6411H205.463C199.63 100.854 199.63 122.31 205.463 142.523Z" fill="#333333"/>
<path d="M193.974 97.4023H162.466C161.922 97.4023 161.481 96.6923 161.481 95.8149C161.481 94.9375 161.922 94.2275 162.466 94.2275H193.974C194.518 94.2275 194.959 94.9375 194.959 95.8149C194.959 96.6923 194.518 97.4023 193.974 97.4023Z" fill="white"/>
<path d="M193.974 112.128H162.466C161.922 112.128 161.481 111.418 161.481 110.541C161.481 109.664 161.922 108.954 162.466 108.954H193.974C194.518 108.954 194.959 109.664 194.959 110.541C194.959 111.418 194.518 112.128 193.974 112.128Z" fill="white"/>
<path d="M44.5786 79.724H111.286C115.838 53.3452 115.838 26.3788 111.286 0H44.5786C52.0937 26.0408 52.0937 53.6832 44.5786 79.724Z" fill="#333333"/>
<path d="M100.761 23.2277H60.1682C59.4676 23.2277 58.8997 22.313 58.8997 21.1826C58.8997 20.0523 59.4676 19.1376 60.1682 19.1376H100.761C101.461 19.1376 102.029 20.0523 102.029 21.1826C102.029 22.313 101.461 23.2277 100.761 23.2277Z" fill="white"/>
<path d="M100.761 42.1996H60.1682C59.4676 42.1996 58.8997 41.2849 58.8997 40.1546C58.8997 39.0242 59.4676 38.1095 60.1682 38.1095H100.761C101.461 38.1095 102.029 39.0242 102.029 40.1546C102.029 41.2849 101.461 42.1996 100.761 42.1996Z" fill="white"/>
<path d="M100.761 61.1715H60.1682C59.4676 61.1715 58.8997 60.2568 58.8997 59.1265C58.8997 57.9961 59.4676 57.0814 60.1682 57.0814H100.761C101.461 57.0814 102.029 57.9961 102.029 59.1265C102.029 60.2568 101.461 61.1715 100.761 61.1715Z" fill="white"/>
<path d="M0.512207 203.665H67.2195C71.7718 177.286 71.7718 150.32 67.2195 123.941H0.512207C8.02732 149.982 8.02732 177.624 0.512207 203.665Z" fill="#333333"/>
<path d="M56.6946 147.169H16.102C15.4015 147.169 14.8335 146.254 14.8335 145.124C14.8335 143.994 15.4015 143.079 16.102 143.079H56.6946C57.3952 143.079 57.9632 143.994 57.9632 145.124C57.9632 146.254 57.3952 147.169 56.6946 147.169Z" fill="white"/>
<path d="M56.6946 166.141H16.102C15.4015 166.141 14.8335 165.226 14.8335 164.096C14.8335 162.965 15.4015 162.051 16.102 162.051H56.6946C57.3952 162.051 57.9632 162.965 57.9632 164.096C57.9632 165.226 57.3952 166.141 56.6946 166.141Z" fill="white"/>
</svg>
