<svg width="20" height="25" viewBox="0 0 20 25" fill="none" xmlns="http://www.w3.org/2000/svg">
<path d="M13.2511 4.3844C14.1447 3.30859 14.5875 1.92883 14.4868 0.533936C13.1173 0.666124 11.8531 1.32644 10.9622 2.37491C10.5185 2.87712 10.1785 3.46206 9.96157 4.09609C9.74468 4.73013 9.65522 5.40078 9.69833 6.0695C10.3806 6.08288 11.0566 5.93763 11.6731 5.64521C12.2896 5.35278 12.8298 4.92118 13.2511 4.3844ZM14.4026 6.32367C12.4366 6.20993 10.7796 7.44708 9.83876 7.44708C8.89791 7.44708 7.46557 6.38546 5.92089 6.41355C4.90947 6.44205 3.92324 6.7355 3.06076 7.26456C2.19828 7.79363 1.48976 8.53979 1.006 9.42848C-1.10038 13.0795 0.444298 18.5182 2.49451 21.491C3.49153 22.9037 4.68515 24.5874 6.27195 24.5326C7.85876 24.4779 8.35025 23.5497 10.1617 23.5497C11.9732 23.5497 12.5068 24.5326 14.0796 24.4975C15.6524 24.4624 16.7477 23.082 17.7307 21.5486C18.4397 20.5012 18.9931 19.3565 19.3736 18.1503C18.4294 17.7323 17.6261 17.0502 17.0605 16.1861C16.495 15.3221 16.1913 14.313 16.186 13.2803C16.1976 12.3641 16.439 11.4654 16.8879 10.6666C17.3369 9.86777 17.9791 9.19439 18.7558 8.7081C18.2623 8.00253 17.6129 7.42014 16.8579 7.00614C16.103 6.59214 15.2628 6.35765 14.4026 6.32087V6.32367Z" fill="#333333"/>
</svg>
