<svg width="20" height="21" viewBox="0 0 20 21" fill="none" xmlns="http://www.w3.org/2000/svg">
<path fill-rule="evenodd" clip-rule="evenodd" d="M13.6363 8.10609C13.6363 9.07051 13.2531 9.99544 12.5712 10.6774C11.8892 11.3593 10.9643 11.7425 9.99989 11.7425C9.03547 11.7425 8.11054 11.3593 7.42859 10.6774C6.74664 9.99544 6.36353 9.07051 6.36353 8.10609C6.36353 7.14167 6.74664 6.21674 7.42859 5.53479C8.11054 4.85284 9.03547 4.46973 9.99989 4.46973C10.9643 4.46973 11.8892 4.85284 12.5712 5.53479C13.2531 6.21674 13.6363 7.14167 13.6363 8.10609ZM11.8181 8.10609C11.8181 8.5883 11.6265 9.05076 11.2855 9.39174C10.9446 9.73271 10.4821 9.92427 9.99989 9.92427C9.51768 9.92427 9.05522 9.73271 8.71424 9.39174C8.37327 9.05076 8.18171 8.5883 8.18171 8.10609C8.18171 7.62388 8.37327 7.16142 8.71424 6.82044C9.05522 6.47947 9.51768 6.28791 9.99989 6.28791C10.4821 6.28791 10.9446 6.47947 11.2855 6.82044C11.6265 7.16142 11.8181 7.62388 11.8181 8.10609Z" fill="#333333" fill-opacity="0.2"/>
<path fill-rule="evenodd" clip-rule="evenodd" d="M10 0.833374C4.47727 0.833374 0 5.31065 0 10.8334C0 16.3561 4.47727 20.8334 10 20.8334C15.5227 20.8334 20 16.3561 20 10.8334C20 5.31065 15.5227 0.833374 10 0.833374ZM1.81818 10.8334C1.81818 12.7334 2.46636 14.4825 3.55273 15.8716C4.31566 14.8696 5.29991 14.0577 6.42858 13.4991C7.55724 12.9405 8.79977 12.6505 10.0591 12.6516C11.3021 12.6504 12.529 12.9329 13.6463 13.4777C14.7636 14.0225 15.7418 14.8151 16.5064 15.7952C17.294 14.7621 17.8244 13.5563 18.0535 12.2775C18.2827 10.9988 18.204 9.68386 17.8241 8.44154C17.4441 7.19922 16.7738 6.06524 15.8686 5.13341C14.9634 4.20158 13.8493 3.4987 12.6185 3.08293C11.3877 2.66715 10.0756 2.55044 8.79078 2.74244C7.50593 2.93444 6.28526 3.42964 5.22979 4.18706C4.17432 4.94448 3.31437 5.94235 2.72112 7.0981C2.12786 8.25385 1.81835 9.53426 1.81818 10.8334ZM10 19.0152C8.12177 19.018 6.30024 18.3719 4.84364 17.1861C5.42994 16.3468 6.21031 15.6615 7.11836 15.1885C8.02641 14.7156 9.03526 14.469 10.0591 14.4697C11.0701 14.4689 12.0668 14.7093 12.9663 15.171C13.8658 15.6327 14.6422 16.3023 15.2309 17.1243C13.763 18.3486 11.9114 19.0179 10 19.0152Z" fill="#333333" fill-opacity="0.2"/>
</svg>
